<svg width="100%" height="100%" id="svg" viewBox="0 0 1440 690" xmlns="http://www.w3.org/2000/svg" class="transition duration-300 ease-in-out delay-150"><path d="M 0,700 C 0,700 0,175 0,175 C 78.67948717948715,161.0974358974359 157.3589743589743,147.19487179487177 241,163 C 324.6410256410257,178.80512820512823 413.2435897435897,224.31794871794872 481,213 C 548.7564102564103,201.68205128205128 595.6666666666667,133.53333333333333 682,133 C 768.3333333333333,132.46666666666667 894.0897435897436,199.54871794871798 995,228 C 1095.9102564102564,256.451282051282 1171.974358974359,246.27179487179487 1242,231 C 1312.025641025641,215.72820512820513 1376.0128205128206,195.36410256410255 1440,175 C 1440,175 1440,700 1440,700 Z" stroke="none" stroke-width="0" fill="#ffffff" fill-opacity="0.4" class="transition-all duration-300 ease-in-out delay-150 path-0"></path><path d="M 0,700 C 0,700 0,350 0,350 C 68.06410256410254,336.2897435897436 136.12820512820508,322.5794871794872 228,336 C 319.8717948717949,349.4205128205128 435.5512820512821,389.9717948717949 509,401 C 582.4487179487179,412.0282051282051 613.6666666666667,393.53333333333336 694,375 C 774.3333333333333,356.46666666666664 903.7820512820513,337.8948717948718 985,337 C 1066.2179487179487,336.1051282051282 1099.2051282051282,352.8871794871795 1167,358 C 1234.7948717948718,363.1128205128205 1337.397435897436,356.55641025641023 1440,350 C 1440,350 1440,700 1440,700 Z" stroke="none" stroke-width="0" fill="#ffffff" fill-opacity="0.53" class="transition-all duration-300 ease-in-out delay-150 path-1"></path><path d="M 0,700 C 0,700 0,525 0,525 C 96.54102564102564,513.9538461538461 193.08205128205128,502.9076923076923 257,502 C 320.9179487179487,501.0923076923077 352.2128205128205,510.323076923077 438,510 C 523.7871794871795,509.676923076923 664.0666666666667,499.8 754,488 C 843.9333333333333,476.2 883.5205128205126,462.4769230769231 944,463 C 1004.4794871794874,463.5230769230769 1085.8512820512822,478.2923076923077 1172,491 C 1258.1487179487178,503.7076923076923 1349.0743589743588,514.3538461538461 1440,525 C 1440,525 1440,700 1440,700 Z" stroke="none" stroke-width="0" fill="#ffffff" fill-opacity="1" class="transition-all duration-300 ease-in-out delay-150 path-2"></path></svg>