<svg xmlns="http://www.w3.org/2000/svg" viewBox="0 0 1440 320"><path fill="#ffffff" fill-opacity="1" d="M0,64L34.3,101.3C68.6,139,137,213,206,240C274.3,267,343,245,411,208C480,171,549,117,617,117.3C685.7,117,754,171,823,181.3C891.4,192,960,160,1029,149.3C1097.1,139,1166,149,1234,149.3C1302.9,149,1371,139,1406,133.3L1440,128L1440,320L1405.7,320C1371.4,320,1303,320,1234,320C1165.7,320,1097,320,1029,320C960,320,891,320,823,320C754.3,320,686,320,617,320C548.6,320,480,320,411,320C342.9,320,274,320,206,320C137.1,320,69,320,34,320L0,320Z"></path></svg>